<mxfile host="app.diagrams.net" modified="2024-05-04T16:42:18.887Z" agent="Mozilla/5.0 (X11; Linux x86_64; rv:125.0) Gecko/20100101 Firefox/125.0" etag="CacWuINC5NvQWTDMwKHT" version="24.3.0" type="device">
  <diagram name="1 oldal" id="_T9My6SaA8b92az_5rgP">
    <mxGraphModel dx="1784" dy="518" grid="1" gridSize="10" guides="1" tooltips="1" connect="1" arrows="1" fold="1" page="1" pageScale="1" pageWidth="827" pageHeight="1169" math="0" shadow="0">
      <root>
        <mxCell id="0" />
        <mxCell id="1" parent="0" />
        <mxCell id="3q7rJwoKS2J7lunqg0EU-1" value="&lt;div&gt;Állomás&lt;/div&gt;" style="swimlane;fontStyle=0;childLayout=stackLayout;horizontal=1;startSize=26;fillColor=none;horizontalStack=0;resizeParent=1;resizeParentMax=0;resizeLast=0;collapsible=1;marginBottom=0;whiteSpace=wrap;html=1;" parent="1" vertex="1">
          <mxGeometry x="-270" y="320" width="110" height="90" as="geometry" />
        </mxCell>
        <mxCell id="3q7rJwoKS2J7lunqg0EU-2" value="&lt;div&gt;- allomasNev&lt;/div&gt;&lt;div&gt;&lt;br&gt;&lt;/div&gt;&lt;div&gt;+ getNev()&lt;br&gt;G: operator&amp;lt;&amp;lt;&lt;br&gt;&lt;/div&gt;&lt;div&gt;&lt;br&gt;&lt;/div&gt;" style="text;strokeColor=none;fillColor=none;align=left;verticalAlign=top;spacingLeft=4;spacingRight=4;overflow=hidden;rotatable=0;points=[[0,0.5],[1,0.5]];portConstraint=eastwest;whiteSpace=wrap;html=1;" parent="3q7rJwoKS2J7lunqg0EU-1" vertex="1">
          <mxGeometry y="26" width="110" height="64" as="geometry" />
        </mxCell>
        <mxCell id="Iy0FpRb79ThX4xDRcXge-1" value="Vonat" style="swimlane;fontStyle=0;childLayout=stackLayout;horizontal=1;startSize=26;fillColor=none;horizontalStack=0;resizeParent=1;resizeParentMax=0;resizeLast=0;collapsible=1;marginBottom=0;whiteSpace=wrap;html=1;" parent="1" vertex="1">
          <mxGeometry x="-70" y="220" width="170" height="180" as="geometry" />
        </mxCell>
        <mxCell id="Iy0FpRb79ThX4xDRcXge-2" value="&lt;div&gt;- Állomás kiinduló&lt;br&gt;&lt;/div&gt;&lt;div&gt;- Állomás vég&lt;br&gt;&lt;/div&gt;&lt;div&gt;- idő indulás&lt;br&gt;&lt;/div&gt;&lt;div&gt;- idő érkezés&lt;br&gt;&lt;/div&gt;&lt;div&gt;- int kocsik db&lt;/div&gt;&lt;div&gt;&lt;br&gt;&lt;/div&gt;&lt;div&gt;+ addTrain()&lt;/div&gt;&lt;div&gt;+ beolvas()&lt;br&gt;+ getterek&lt;br&gt;+ setterek&lt;br&gt;&lt;/div&gt;&lt;div&gt;&lt;br&gt;&lt;/div&gt;&lt;div&gt;&lt;br&gt;&lt;/div&gt;&lt;div&gt;&lt;br&gt;&lt;/div&gt;" style="text;strokeColor=none;fillColor=none;align=left;verticalAlign=top;spacingLeft=4;spacingRight=4;overflow=hidden;rotatable=0;points=[[0,0.5],[1,0.5]];portConstraint=eastwest;whiteSpace=wrap;html=1;" parent="Iy0FpRb79ThX4xDRcXge-1" vertex="1">
          <mxGeometry y="26" width="170" height="154" as="geometry" />
        </mxCell>
        <mxCell id="Iy0FpRb79ThX4xDRcXge-6" value="Jegy" style="swimlane;fontStyle=0;childLayout=stackLayout;horizontal=1;startSize=26;fillColor=none;horizontalStack=0;resizeParent=1;resizeParentMax=0;resizeLast=0;collapsible=1;marginBottom=0;whiteSpace=wrap;html=1;" parent="1" vertex="1">
          <mxGeometry x="160" y="220" width="140" height="170" as="geometry" />
        </mxCell>
        <mxCell id="Iy0FpRb79ThX4xDRcXge-7" value="&lt;div&gt;+ Honnan&lt;/div&gt;&lt;div&gt;+ Hova&lt;/div&gt;&lt;div&gt;+ Mikor&lt;/div&gt;&lt;div&gt;+ Vonat száma&lt;/div&gt;&lt;div&gt;+ ár&lt;/div&gt;&lt;div&gt;+ szazalék&lt;br&gt;&lt;/div&gt;&lt;div&gt;&lt;br&gt;&lt;/div&gt;&lt;div&gt;+ printJegy()&lt;/div&gt;&lt;div&gt;+getAr()&lt;/div&gt;&lt;div&gt;&lt;br&gt;&lt;/div&gt;" style="text;strokeColor=none;fillColor=none;align=left;verticalAlign=top;spacingLeft=4;spacingRight=4;overflow=hidden;rotatable=0;points=[[0,0.5],[1,0.5]];portConstraint=eastwest;whiteSpace=wrap;html=1;" parent="Iy0FpRb79ThX4xDRcXge-6" vertex="1">
          <mxGeometry y="26" width="140" height="144" as="geometry" />
        </mxCell>
        <mxCell id="Iy0FpRb79ThX4xDRcXge-11" value="&lt;div&gt;Kiosk&lt;/div&gt;" style="swimlane;fontStyle=0;childLayout=stackLayout;horizontal=1;startSize=26;fillColor=none;horizontalStack=0;resizeParent=1;resizeParentMax=0;resizeLast=0;collapsible=1;marginBottom=0;whiteSpace=wrap;html=1;" parent="1" vertex="1">
          <mxGeometry x="430" y="265" width="140" height="80" as="geometry" />
        </mxCell>
        <mxCell id="Iy0FpRb79ThX4xDRcXge-13" value="&lt;div&gt;+ Vonat hozzáadás&lt;/div&gt;&lt;div&gt;+ Vonatok lekérdezése&lt;/div&gt;&lt;div&gt;+ Jegy kiadása&lt;br&gt;&lt;/div&gt;&lt;div&gt;&lt;br&gt;&lt;/div&gt;" style="text;strokeColor=none;fillColor=none;align=left;verticalAlign=top;spacingLeft=4;spacingRight=4;overflow=hidden;rotatable=0;points=[[0,0.5],[1,0.5]];portConstraint=eastwest;whiteSpace=wrap;html=1;" parent="Iy0FpRb79ThX4xDRcXge-11" vertex="1">
          <mxGeometry y="26" width="140" height="54" as="geometry" />
        </mxCell>
        <mxCell id="Iy0FpRb79ThX4xDRcXge-20" value="Diák" style="swimlane;fontStyle=0;childLayout=stackLayout;horizontal=1;startSize=26;fillColor=none;horizontalStack=0;resizeParent=1;resizeParentMax=0;resizeLast=0;collapsible=1;marginBottom=0;whiteSpace=wrap;html=1;" parent="1" vertex="1">
          <mxGeometry x="110" y="525" width="90" height="80" as="geometry" />
        </mxCell>
        <mxCell id="Iy0FpRb79ThX4xDRcXge-21" value="&lt;div&gt;+ ar()&lt;br&gt;&lt;/div&gt;&lt;div&gt;+ string típus&lt;br&gt;&lt;/div&gt;&lt;div&gt;&lt;br&gt;&lt;/div&gt;" style="text;strokeColor=none;fillColor=none;align=left;verticalAlign=top;spacingLeft=4;spacingRight=4;overflow=hidden;rotatable=0;points=[[0,0.5],[1,0.5]];portConstraint=eastwest;whiteSpace=wrap;html=1;" parent="Iy0FpRb79ThX4xDRcXge-20" vertex="1">
          <mxGeometry y="26" width="90" height="54" as="geometry" />
        </mxCell>
        <mxCell id="Iy0FpRb79ThX4xDRcXge-23" value="Kutya" style="swimlane;fontStyle=0;childLayout=stackLayout;horizontal=1;startSize=26;fillColor=none;horizontalStack=0;resizeParent=1;resizeParentMax=0;resizeLast=0;collapsible=1;marginBottom=0;whiteSpace=wrap;html=1;" parent="1" vertex="1">
          <mxGeometry x="310" y="525" width="90" height="80" as="geometry">
            <mxRectangle x="670" y="536" width="70" height="30" as="alternateBounds" />
          </mxGeometry>
        </mxCell>
        <mxCell id="w59HtbQ6xJ2VSbw1lUUZ-18" value="&lt;div&gt;+ ar()&lt;br&gt;&lt;/div&gt;&lt;div&gt;+ string típus&lt;br&gt;&lt;/div&gt;&lt;div&gt;&lt;br&gt;&lt;/div&gt;" style="text;strokeColor=none;fillColor=none;align=left;verticalAlign=top;spacingLeft=4;spacingRight=4;overflow=hidden;rotatable=0;points=[[0,0.5],[1,0.5]];portConstraint=eastwest;whiteSpace=wrap;html=1;" parent="Iy0FpRb79ThX4xDRcXge-23" vertex="1">
          <mxGeometry y="26" width="90" height="54" as="geometry" />
        </mxCell>
        <mxCell id="Iy0FpRb79ThX4xDRcXge-33" value="Teljesárú" style="swimlane;fontStyle=0;childLayout=stackLayout;horizontal=1;startSize=26;fillColor=none;horizontalStack=0;resizeParent=1;resizeParentMax=0;resizeLast=0;collapsible=1;marginBottom=0;whiteSpace=wrap;html=1;" parent="1" vertex="1">
          <mxGeometry x="210" y="525" width="90" height="80" as="geometry" />
        </mxCell>
        <mxCell id="w59HtbQ6xJ2VSbw1lUUZ-17" value="&lt;div&gt;+ ar()&lt;br&gt;&lt;/div&gt;&lt;div&gt;+ string típus&lt;br&gt;&lt;/div&gt;&lt;div&gt;&lt;br&gt;&lt;/div&gt;" style="text;strokeColor=none;fillColor=none;align=left;verticalAlign=top;spacingLeft=4;spacingRight=4;overflow=hidden;rotatable=0;points=[[0,0.5],[1,0.5]];portConstraint=eastwest;whiteSpace=wrap;html=1;" parent="Iy0FpRb79ThX4xDRcXge-33" vertex="1">
          <mxGeometry y="26" width="90" height="54" as="geometry" />
        </mxCell>
        <mxCell id="w59HtbQ6xJ2VSbw1lUUZ-9" value="" style="endArrow=diamondThin;endFill=1;endSize=24;html=1;rounded=0;entryX=1.006;entryY=0.102;entryDx=0;entryDy=0;entryPerimeter=0;exitX=0;exitY=0.142;exitDx=0;exitDy=0;exitPerimeter=0;" parent="1" source="Iy0FpRb79ThX4xDRcXge-6" edge="1">
          <mxGeometry width="160" relative="1" as="geometry">
            <mxPoint x="280" y="240" as="sourcePoint" />
            <mxPoint x="99.99999999999999" y="243.05999999999995" as="targetPoint" />
          </mxGeometry>
        </mxCell>
        <mxCell id="w59HtbQ6xJ2VSbw1lUUZ-11" style="edgeStyle=none;rounded=0;orthogonalLoop=1;jettySize=auto;html=1;entryX=0.199;entryY=1.011;entryDx=0;entryDy=0;entryPerimeter=0;" parent="1" source="Iy0FpRb79ThX4xDRcXge-20" target="Iy0FpRb79ThX4xDRcXge-7" edge="1">
          <mxGeometry relative="1" as="geometry">
            <mxPoint x="204.03999999999996" y="477.28599999999994" as="targetPoint" />
          </mxGeometry>
        </mxCell>
        <mxCell id="w59HtbQ6xJ2VSbw1lUUZ-12" style="edgeStyle=none;rounded=0;orthogonalLoop=1;jettySize=auto;html=1;exitX=0.5;exitY=0;exitDx=0;exitDy=0;entryX=0.5;entryY=1;entryDx=0;entryDy=0;" parent="1" source="Iy0FpRb79ThX4xDRcXge-33" target="Iy0FpRb79ThX4xDRcXge-6" edge="1">
          <mxGeometry relative="1" as="geometry">
            <mxPoint x="229.24000000000024" y="481.10799999999995" as="targetPoint" />
          </mxGeometry>
        </mxCell>
        <mxCell id="w59HtbQ6xJ2VSbw1lUUZ-13" style="edgeStyle=none;rounded=0;orthogonalLoop=1;jettySize=auto;html=1;entryX=0.78;entryY=1.028;entryDx=0;entryDy=0;entryPerimeter=0;" parent="1" source="Iy0FpRb79ThX4xDRcXge-23" target="Iy0FpRb79ThX4xDRcXge-7" edge="1">
          <mxGeometry relative="1" as="geometry">
            <mxPoint x="256.4000000000001" y="476.81799999999987" as="targetPoint" />
          </mxGeometry>
        </mxCell>
        <mxCell id="w59HtbQ6xJ2VSbw1lUUZ-15" value="ÚtVonal" style="swimlane;fontStyle=0;childLayout=stackLayout;horizontal=1;startSize=26;fillColor=none;horizontalStack=0;resizeParent=1;resizeParentMax=0;resizeLast=0;collapsible=1;marginBottom=0;whiteSpace=wrap;html=1;" parent="1" vertex="1">
          <mxGeometry x="220" y="60" width="140" height="80" as="geometry" />
        </mxCell>
        <mxCell id="w59HtbQ6xJ2VSbw1lUUZ-16" value="&lt;div&gt;Állomások kollekciója&lt;/div&gt;&lt;div&gt;Itt lehetne tárolni egy vonat megállóhelyeit. &lt;br&gt;&lt;/div&gt;&lt;div&gt;&lt;br&gt;&lt;/div&gt;" style="text;strokeColor=none;fillColor=none;align=left;verticalAlign=top;spacingLeft=4;spacingRight=4;overflow=hidden;rotatable=0;points=[[0,0.5],[1,0.5]];portConstraint=eastwest;whiteSpace=wrap;html=1;" parent="w59HtbQ6xJ2VSbw1lUUZ-15" vertex="1">
          <mxGeometry y="26" width="140" height="54" as="geometry" />
        </mxCell>
        <mxCell id="kGE9ZIyajPKlhXEdaPD5-1" value="" style="endArrow=diamondThin;endFill=0;endSize=24;html=1;rounded=0;exitX=0.997;exitY=0.314;exitDx=0;exitDy=0;exitPerimeter=0;entryX=0;entryY=0.5;entryDx=0;entryDy=0;" parent="1" target="Iy0FpRb79ThX4xDRcXge-2" edge="1">
          <mxGeometry width="160" relative="1" as="geometry">
            <mxPoint x="-159.99999999999991" y="348.26" as="sourcePoint" />
            <mxPoint x="-73.67" y="310" as="targetPoint" />
          </mxGeometry>
        </mxCell>
        <mxCell id="kGE9ZIyajPKlhXEdaPD5-6" style="edgeStyle=orthogonalEdgeStyle;rounded=0;orthogonalLoop=1;jettySize=auto;html=1;" parent="1" source="kGE9ZIyajPKlhXEdaPD5-5" target="w59HtbQ6xJ2VSbw1lUUZ-15" edge="1">
          <mxGeometry relative="1" as="geometry" />
        </mxCell>
        <mxCell id="kGE9ZIyajPKlhXEdaPD5-5" value="Heterogén kollekció??" style="text;html=1;align=center;verticalAlign=middle;resizable=0;points=[];autosize=1;strokeColor=none;fillColor=none;" parent="1" vertex="1">
          <mxGeometry x="420" y="85" width="140" height="30" as="geometry" />
        </mxCell>
        <mxCell id="VkkinIfNLg3d8sxkp59A-1" value="Segéd" style="swimlane;fontStyle=0;childLayout=stackLayout;horizontal=1;startSize=26;fillColor=none;horizontalStack=0;resizeParent=1;resizeParentMax=0;resizeLast=0;collapsible=1;marginBottom=0;whiteSpace=wrap;html=1;" vertex="1" parent="1">
          <mxGeometry x="-270" y="430" width="110" height="110" as="geometry" />
        </mxCell>
        <mxCell id="VkkinIfNLg3d8sxkp59A-2" value="&lt;div&gt;&lt;div&gt;+ char* kiinduló&lt;br&gt;&lt;/div&gt;&lt;div&gt;+ char* vég&lt;br&gt;&lt;/div&gt;&lt;div&gt;+ char* indulás&lt;br&gt;&lt;/div&gt;&lt;div&gt;+ char* érkezés&lt;br&gt;&lt;/div&gt;&lt;div&gt;+ char* kocsik db&lt;/div&gt;&lt;/div&gt;&lt;div&gt;&lt;br&gt;&lt;/div&gt;" style="text;strokeColor=none;fillColor=none;align=left;verticalAlign=top;spacingLeft=4;spacingRight=4;overflow=hidden;rotatable=0;points=[[0,0.5],[1,0.5]];portConstraint=eastwest;whiteSpace=wrap;html=1;" vertex="1" parent="VkkinIfNLg3d8sxkp59A-1">
          <mxGeometry y="26" width="110" height="84" as="geometry" />
        </mxCell>
        <mxCell id="VkkinIfNLg3d8sxkp59A-5" value="" style="endArrow=diamondThin;endFill=1;endSize=24;html=1;rounded=0;entryX=0.005;entryY=0.983;entryDx=0;entryDy=0;entryPerimeter=0;exitX=1.013;exitY=0.2;exitDx=0;exitDy=0;exitPerimeter=0;" edge="1" parent="1" source="VkkinIfNLg3d8sxkp59A-1" target="Iy0FpRb79ThX4xDRcXge-2">
          <mxGeometry width="160" relative="1" as="geometry">
            <mxPoint x="100" y="490.94" as="sourcePoint" />
            <mxPoint x="-80.00000000000001" y="489.99999999999994" as="targetPoint" />
          </mxGeometry>
        </mxCell>
        <mxCell id="VkkinIfNLg3d8sxkp59A-6" value="Ido" style="swimlane;fontStyle=0;childLayout=stackLayout;horizontal=1;startSize=26;fillColor=none;horizontalStack=0;resizeParent=1;resizeParentMax=0;resizeLast=0;collapsible=1;marginBottom=0;whiteSpace=wrap;html=1;" vertex="1" parent="1">
          <mxGeometry x="-270" y="190" width="110" height="110" as="geometry" />
        </mxCell>
        <mxCell id="VkkinIfNLg3d8sxkp59A-7" value="&lt;div&gt;- int ora&lt;/div&gt;&lt;div&gt;- int perc&lt;/div&gt;&lt;div&gt;&lt;br&gt;&lt;/div&gt;&lt;div&gt;+ getter&lt;br&gt;G: operator&amp;lt;&amp;lt;&lt;br&gt;&lt;/div&gt;&lt;div&gt;&lt;br&gt;&lt;/div&gt;" style="text;strokeColor=none;fillColor=none;align=left;verticalAlign=top;spacingLeft=4;spacingRight=4;overflow=hidden;rotatable=0;points=[[0,0.5],[1,0.5]];portConstraint=eastwest;whiteSpace=wrap;html=1;" vertex="1" parent="VkkinIfNLg3d8sxkp59A-6">
          <mxGeometry y="26" width="110" height="84" as="geometry" />
        </mxCell>
        <mxCell id="VkkinIfNLg3d8sxkp59A-8" value="" style="endArrow=diamondThin;endFill=1;endSize=24;html=1;rounded=0;entryX=-0.005;entryY=0.019;entryDx=0;entryDy=0;entryPerimeter=0;exitX=0.995;exitY=0.182;exitDx=0;exitDy=0;exitPerimeter=0;" edge="1" parent="1" target="Iy0FpRb79ThX4xDRcXge-2">
          <mxGeometry width="160" relative="1" as="geometry">
            <mxPoint x="-159.99999999999994" y="220.00000000000009" as="sourcePoint" />
            <mxPoint x="-71.45" y="239.98" as="targetPoint" />
          </mxGeometry>
        </mxCell>
        <mxCell id="VkkinIfNLg3d8sxkp59A-9" value="&lt;font style=&quot;font-size: 9px;&quot;&gt;Magával rántja a sírba&lt;/font&gt;" style="text;html=1;align=center;verticalAlign=middle;resizable=0;points=[];autosize=1;strokeColor=none;fillColor=none;rotation=15;" vertex="1" parent="1">
          <mxGeometry x="-170" y="210" width="110" height="30" as="geometry" />
        </mxCell>
        <mxCell id="VkkinIfNLg3d8sxkp59A-10" value="&lt;div&gt;Konstruktorok, getterek, setterek &lt;br&gt;&lt;/div&gt;&lt;div&gt;helyspórolás miatt kimaradtak&lt;br&gt;&lt;/div&gt;" style="text;html=1;align=center;verticalAlign=middle;resizable=0;points=[];autosize=1;strokeColor=none;fillColor=none;" vertex="1" parent="1">
          <mxGeometry y="140" width="200" height="40" as="geometry" />
        </mxCell>
      </root>
    </mxGraphModel>
  </diagram>
</mxfile>
